<svg width="34" height="34" viewBox="0 0 34 34" fill="none" xmlns="http://www.w3.org/2000/svg">
<path d="M17.053 8.46489C12.3327 8.46489 8.52528 12.2723 8.52528 16.9926C8.52528 21.7129 12.3327 25.5204 17.053 25.5204C21.7733 25.5204 25.5807 21.7129 25.5807 16.9926C25.5807 12.2723 21.7733 8.46489 17.053 8.46489ZM17.053 22.5368C14.0026 22.5368 11.5089 20.0504 11.5089 16.9926C11.5089 13.9348 13.9952 11.4485 17.053 11.4485C20.1108 11.4485 22.5972 13.9348 22.5972 16.9926C22.5972 20.0504 20.1034 22.5368 17.053 22.5368ZM27.9186 8.11607C27.9186 9.22192 27.028 10.1051 25.9296 10.1051C24.8237 10.1051 23.9405 9.2145 23.9405 8.11607C23.9405 7.01763 24.8311 6.127 25.9296 6.127C27.028 6.127 27.9186 7.01763 27.9186 8.11607ZM33.5667 10.1348C33.4405 7.47036 32.8319 5.11021 30.88 3.16567C28.9354 1.22114 26.5753 0.612549 23.9108 0.478955C21.1647 0.323096 12.9339 0.323096 10.1878 0.478955C7.53075 0.605127 5.17059 1.21372 3.21864 3.15825C1.26668 5.10278 0.665512 7.46294 0.531918 10.1274C0.376059 12.8735 0.376059 21.1043 0.531918 23.8504C0.65809 26.5149 1.26668 28.8751 3.21864 30.8196C5.17059 32.7641 7.52332 33.3727 10.1878 33.5063C12.9339 33.6622 21.1647 33.6622 23.9108 33.5063C26.5753 33.3801 28.9354 32.7715 30.88 30.8196C32.8245 28.8751 33.4331 26.5149 33.5667 23.8504C33.7225 21.1043 33.7225 12.8809 33.5667 10.1348ZM30.019 26.7969C29.4401 28.2516 28.3194 29.3723 26.8573 29.9586C24.6679 30.827 19.4725 30.6266 17.053 30.6266C14.6335 30.6266 9.43075 30.8196 7.24871 29.9586C5.79403 29.3797 4.67332 28.259 4.087 26.7969C3.21864 24.6075 3.41903 19.4122 3.41903 16.9926C3.41903 14.5731 3.22606 9.37036 4.087 7.18833C4.6659 5.73364 5.78661 4.61294 7.24871 4.02661C9.43817 3.15825 14.6335 3.35864 17.053 3.35864C19.4725 3.35864 24.6753 3.16567 26.8573 4.02661C28.312 4.60552 29.4327 5.72622 30.019 7.18833C30.8874 9.37778 30.687 14.5731 30.687 16.9926C30.687 19.4122 30.8874 24.6149 30.019 26.7969Z" fill="white"/>
</svg>
