<svg width="39" height="38" viewBox="0 0 39 38" fill="none" xmlns="http://www.w3.org/2000/svg">
<path d="M9.86325 33.25H2.96981V11.0512H9.86325V33.25ZM6.41282 8.02304C4.20852 8.02304 2.42059 6.19726 2.42059 3.99296C2.42059 2.93415 2.8412 1.91872 3.58989 1.17003C4.33858 0.421341 5.35402 0.000732422 6.41282 0.000732422C7.47162 0.000732422 8.48706 0.421341 9.23575 1.17003C9.98444 1.91872 10.405 2.93415 10.405 3.99296C10.405 6.19726 8.61637 8.02304 6.41282 8.02304ZM35.6632 33.25H28.7846V22.4437C28.7846 19.8683 28.7326 16.5656 25.2006 16.5656C21.6165 16.5656 21.0673 19.3637 21.0673 22.2582V33.25H14.1813V11.0512H20.7927V14.0793H20.8892C21.8095 12.3351 24.0576 10.4945 27.4115 10.4945C34.3881 10.4945 35.6706 15.0887 35.6706 21.0558V33.25H35.6632Z" fill="white"/>
</svg>
