<svg width="103" height="20" viewBox="0 0 103 20" fill="none" xmlns="http://www.w3.org/2000/svg">
<mask id="mask0_12_98" style="mask-type:alpha" maskUnits="userSpaceOnUse" x="0" y="0" width="103" height="20">
<path d="M24.991 18.932V15.8224H29.2222C30.0039 15.8224 30.6156 15.593 31.0574 15.1342C31.4992 14.6754 31.7201 14.1146 31.7201 13.4519C31.7201 12.9931 31.6182 12.5852 31.4143 12.2284C31.2103 11.8716 30.9215 11.5912 30.5476 11.3873C30.1908 11.1834 29.749 11.0814 29.2222 11.0814H24.991V8.0482H28.8908C29.5536 8.0482 30.0888 7.88677 30.4967 7.56391C30.9045 7.22406 31.1084 6.71428 31.1084 6.03457C31.1084 5.37186 30.9045 4.87907 30.4967 4.55621C30.0888 4.21635 29.5536 4.04643 28.8908 4.04643H24.991V0.936768H29.6555C30.811 0.936768 31.7881 1.14918 32.5868 1.57399C33.4024 1.99881 34.0226 2.56807 34.4475 3.28176C34.8723 3.99545 35.0847 4.78561 35.0847 5.65224C35.0847 6.75676 34.7278 7.69136 34.0141 8.45603C33.3004 9.2207 32.2469 9.74747 30.8535 10.0363L30.9555 8.68543C32.4678 8.97431 33.6318 9.56055 34.4475 10.4442C35.2801 11.3278 35.6964 12.4153 35.6964 13.7068C35.6964 14.6923 35.45 15.5845 34.9572 16.3831C34.4814 17.1648 33.7847 17.785 32.8671 18.2438C31.9665 18.7026 30.879 18.932 29.6045 18.932H24.991ZM16.9076 18.932C16.9076 18.932 21.524 16.5254 21.524 10.0363C21.524 3.54728 16.9076 0.936768 16.9076 0.936768H25.8831V18.932H16.9076Z" fill="white"/>
<path d="M36.8216 18.7905V0.795294H40.8234V18.7905H36.8216ZM39.8803 18.7905V15.324H49.7446V18.7905H39.8803ZM39.8803 11.2713V7.93222H48.8524V11.2713H39.8803ZM39.8803 4.23631V0.795294H49.6171V4.23631H39.8803Z" fill="white"/>
<path d="M55.562 11.3732V8.41651H59.3599C60.1586 8.41651 60.7703 8.2126 61.1951 7.80477C61.6369 7.39695 61.8578 6.84469 61.8578 6.14799C61.8578 5.50227 61.6454 4.967 61.2206 4.54218C60.7958 4.11736 60.184 3.90495 59.3854 3.90495H55.562V0.795294H59.8442C61.0337 0.795294 62.0787 1.0247 62.9793 1.4835C63.8799 1.92531 64.5851 2.54554 65.0949 3.3442C65.6047 4.14285 65.8596 5.06046 65.8596 6.09701C65.8596 7.15056 65.6047 8.07666 65.0949 8.87531C64.5851 9.65698 63.8715 10.2687 62.9538 10.7105C62.0362 11.1523 60.9572 11.3732 59.7167 11.3732H55.562ZM52.5033 18.7905V0.795294H56.5051V18.7905H52.5033ZM62.2911 18.7905L56.6835 11.0419L60.354 10.0478L67.0321 18.7905H62.2911Z" fill="white"/>
<path d="M77.2727 19.0964C75.9133 19.0964 74.6558 18.8585 73.5003 18.3827C72.3618 17.9069 71.3592 17.2442 70.4926 16.3946C69.626 15.5449 68.9548 14.5594 68.479 13.4378C68.0032 12.2993 67.7653 11.0759 67.7653 9.76743C67.7653 8.442 68.0032 7.21853 68.479 6.09701C68.9548 4.97549 69.6175 3.99841 70.4671 3.16577C71.3168 2.31614 72.3108 1.66192 73.4493 1.20312C74.6049 0.727323 75.8623 0.489426 77.2217 0.489426C78.5641 0.489426 79.8046 0.727323 80.9431 1.20312C82.0986 1.66192 83.1012 2.31614 83.9508 3.16577C84.8175 3.99841 85.4887 4.98399 85.9645 6.1225C86.4403 7.24402 86.6782 8.46749 86.6782 9.79292C86.6782 11.1014 86.4403 12.3248 85.9645 13.4633C85.4887 14.5849 84.826 15.5704 83.9763 16.4201C83.1267 17.2527 82.1241 17.9069 80.9686 18.3827C79.8301 18.8585 78.5981 19.0964 77.2727 19.0964ZM77.2217 15.4515C78.2923 15.4515 79.2269 15.2136 80.0255 14.7378C80.8412 14.262 81.4699 13.5993 81.9117 12.7496C82.3535 11.883 82.5744 10.8889 82.5744 9.76743C82.5744 8.91779 82.447 8.15312 82.1921 7.47342C81.9372 6.77672 81.5718 6.18197 81.0961 5.68919C80.6203 5.17941 80.051 4.79707 79.3883 4.54218C78.7426 4.2703 78.0204 4.13436 77.2217 4.13436C76.1512 4.13436 75.2081 4.37225 74.3924 4.84805C73.5938 5.30685 72.9736 5.96107 72.5317 6.8107C72.0899 7.64334 71.869 8.62892 71.869 9.76743C71.869 10.6171 71.9965 11.3902 72.2514 12.0869C72.5063 12.7836 72.8631 13.3869 73.3219 13.8967C73.7977 14.3894 74.367 14.7718 75.0297 15.0437C75.6924 15.3155 76.4231 15.4515 77.2217 15.4515Z" fill="white"/>
<path d="M9.50741 19.5106C8.14799 19.5106 6.89053 19.2727 5.73503 18.7969C4.59652 18.3211 3.59395 17.6584 2.72733 16.8087C1.8607 15.9591 1.18949 14.9735 0.713695 13.852C0.2379 12.7135 0 11.49 0 10.1816C0 8.85615 0.2379 7.63268 0.713695 6.51116C1.18949 5.38965 1.8522 4.41257 2.70184 3.57993C3.55147 2.73029 4.54554 2.07607 5.68405 1.61727C6.83955 1.14148 8.09701 0.90358 9.45643 0.90358C10.7988 0.90358 12.0393 1.14148 13.1778 1.61727C14.3333 2.07607 15.3359 2.73029 16.1855 3.57993C17.0522 4.41257 17.7234 5.39814 18.1992 6.53665C18.675 7.65817 18.9129 8.88164 18.9129 10.2071C18.9129 11.5155 18.675 12.739 18.1992 13.8775C17.7234 14.999 17.0607 15.9846 16.211 16.8342C15.3614 17.6669 14.3588 18.3211 13.2033 18.7969C12.0648 19.2727 10.8328 19.5106 9.50741 19.5106ZM9.45643 15.8656C10.527 15.8656 11.4616 15.6277 12.2602 15.1519C13.0759 14.6761 13.7046 14.0134 14.1464 13.1638C14.5882 12.2972 14.8091 11.3031 14.8091 10.1816C14.8091 9.33195 14.6817 8.56728 14.4268 7.88757C14.1719 7.19087 13.8066 6.59613 13.3308 6.10334C12.855 5.59356 12.2857 5.21122 11.623 4.95633C10.9773 4.68445 10.2551 4.54851 9.45643 4.54851C8.38589 4.54851 7.4428 4.78641 6.62715 5.2622C5.82849 5.721 5.20826 6.37522 4.76645 7.22486C4.32464 8.0575 4.10373 9.04307 4.10373 10.1816C4.10373 11.0312 4.23118 11.8044 4.48607 12.5011C4.74096 13.1978 5.09781 13.801 5.55661 14.3108C6.0324 14.8036 6.60166 15.1859 7.26437 15.4578C7.92708 15.7297 8.65777 15.8656 9.45643 15.8656Z" fill="white"/>
<path d="M83.6223 18.934C83.6223 18.934 88.5575 16.8136 88.5575 9.91118C88.5575 3.0088 83.6223 0.90358 83.6223 0.90358H92.4918V4.83793V18.934H83.6223ZM98.2553 18.934L90.0415 8.25461L92.4918 0.90358L99.2907 9.28997L98.2553 18.934ZM98.2553 18.934V14.5703V0.90358H103V18.934H98.2553Z" fill="white"/>
</mask>
<g mask="url(#mask0_12_98)">
<g filter="url(#filter0_b_12_98)">
<rect y="0.489426" width="103" height="19.055" fill="white"/>
</g>
</g>
<defs>
<filter id="filter0_b_12_98" x="-500" y="-499.511" width="1103" height="1019.06" filterUnits="userSpaceOnUse" color-interpolation-filters="sRGB">
<feFlood flood-opacity="0" result="BackgroundImageFix"/>
<feGaussianBlur in="BackgroundImage" stdDeviation="250"/>
<feComposite in2="SourceAlpha" operator="in" result="effect1_backgroundBlur_12_98"/>
<feBlend mode="normal" in="SourceGraphic" in2="effect1_backgroundBlur_12_98" result="shape"/>
</filter>
</defs>
</svg>
