<svg width="39" height="32" viewBox="0 0 39 32" fill="none" xmlns="http://www.w3.org/2000/svg">
<path d="M34.1395 8.26019C34.1636 8.59774 34.1636 8.93536 34.1636 9.2729C34.1636 19.5685 26.3273 31.4315 12.005 31.4315C7.59253 31.4315 3.49357 30.1535 0.0455933 27.9354C0.672519 28.0076 1.27525 28.0318 1.9263 28.0318C5.5671 28.0318 8.91867 26.8021 11.5951 24.7044C8.17121 24.632 5.30191 22.3897 4.31332 19.3033C4.79559 19.3756 5.27779 19.4239 5.78419 19.4239C6.4834 19.4239 7.18269 19.3274 7.83366 19.1587C4.26515 18.4353 1.58868 15.3008 1.58868 11.5153V11.4189C2.62544 11.9975 3.83112 12.3592 5.10894 12.4074C3.01123 11.0089 1.63692 8.62186 1.63692 5.92133C1.63692 4.47466 2.02263 3.14852 2.6978 1.99115C6.53157 6.71703 12.2943 9.80327 18.7561 10.1409C18.6356 9.56221 18.5632 8.95948 18.5632 8.35667C18.5632 4.06475 22.0353 0.568604 26.3513 0.568604C28.5937 0.568604 30.619 1.50896 32.0417 3.02799C33.8018 2.69044 35.4896 2.0394 36.9846 1.14729C36.4058 2.9557 35.1761 4.47474 33.5607 5.43913C35.128 5.27044 36.647 4.83633 38.0454 4.2336C36.9847 5.77668 35.6585 7.15099 34.1395 8.26019Z" fill="white"/>
</svg>
